<svg id="Capa_1" enable-background="new 0 0 512 512" height="512" viewBox="0 0 512 512" width="512" xmlns="http://www.w3.org/2000/svg"><g><g><path d="m75.037 180.963v208.884h180.963l47.771-181.649-47.771-208.198c-99.783 0-180.963 81.18-180.963 180.963z" fill="#f8b400"/><path d="m436.963 180.963c0-99.783-81.18-180.963-180.963-180.963v389.847h180.963z" fill="#fd9127"/></g><g><path d="m47.412 357.477c-20.032 31.651-31.378 68.919-31.378 108.04v46.483h239.966l28.946-170.376c-98.439-3.72-226.002-2.366-237.534 15.853z" fill="#fd445f"/><path d="m495.966 464.857c0-38.654-10.854-75.917-31.48-108.359-.87-1.368-104.578-10.948-208.486-14.875v170.377h239.966z" fill="#e1105a"/></g><g><path d="m99.217 472.118 21.943 39.882h34.242l-29.9-54.344z" fill="#e1105a"/><path d="m387.739 457.656-29.901 54.344h34.24l21.944-39.882z" fill="#b20844"/></g><g><path d="m203.474 256.191-52.869 18.766c-43.623 15.484-79.482 45.074-103.186 82.524 31.325 34.15 75.511 53.904 122.819 53.904h85.762l20.173-69.761-20.173-85.698z" fill="#ffcebf"/><path d="m459.206 348.604c-24.049-34.225-57.562-59.809-96.915-73.986l-52.638-18.963-53.653.271v155.459h84.752c47.88 0 92.379-20.109 123.726-54.881-1.694-2.666-3.446-5.302-5.272-7.9z" fill="#f5afaa"/></g><g><path d="m241 85.335v20.219c0 19.716-16.04 35.756-35.756 35.756h-68.083v36.534c0 65.528 53.311 118.839 118.839 118.839l16.043-90.634-16.043-120.714z" fill="#ffdfcf"/></g><path d="m306.756 141.31c-19.716 0-35.756-16.04-35.756-35.756v-20.219h-15v211.347c65.528 0 118.839-53.311 118.839-118.839v-36.533z" fill="#ffcebf"/></g></svg>