<svg id="Capa_1" enable-background="new 0 0 512 512" height="512" viewBox="0 0 512 512" width="512" xmlns="http://www.w3.org/2000/svg"><g><g><g><path d="m128.068 268.129-15.905 5.645c-67.088 23.814-112.163 87.643-112.163 158.832v79.394h256.218l28.467-78.051-28.467-166.038z" fill="#79e1f5"/><path d="m512 432.098c0-70.835-44.775-134.558-111.417-158.564l-16.215-5.841-128.15.218v244.089h255.782z" fill="#31c3e7"/></g><g><path d="m128.068 268.129 128.15 127.932 24.344-87.491-24.344-85.924z" fill="#ffcebf"/></g><path d="m257.78 222.091-1.562.555v173.415l128.15-128.368z" fill="#f5afaa"/></g><g><path d="m154.55 52.308c-3.664 3.309-7.006 7.483-9.984 12.731-10.56 18.608-16.593 40.107-16.593 62.988v14.483c0 70.594 57.433 128.027 128.027 128.027.073 0 .145-.003.218-.003l24.344-95.963-24.344-122.263z" fill="#ffdfcf"/></g><path d="m357.971 52.308h-101.753v218.226c70.495-.119 127.809-57.503 127.809-128.024v-14.483c0-22.881-6.034-44.379-16.593-62.987-2.837-4.999-6.003-9.199-9.463-12.732z" fill="#ffcebf"/><g><g><path d="m100.495 440.437h30v71.563h-30z" fill="#31c3e7"/></g><g><path d="m381.505 440.437h30v71.563h-30z" fill="#199de2"/></g></g><g><path d="m256.218 104.529 24.344-52.263-24.344-52.263c-.073 0-.145-.003-.218-.003-47.713 0-89.408 26.24-111.428 65.043 31.323 25.332 70.697 39.489 111.428 39.489.073 0 .145-.003.218-.003z" fill="#f8b400"/></g><g><path d="m256.218.003v104.527c40.653-.051 79.943-14.2 111.21-39.486-21.986-38.744-63.588-64.961-111.21-65.041z" fill="#fd9127"/></g></g></svg>